# xmcd
#
# Track frame offsets: 
#        150
#        19253
#        36533
#        59291
#
# Disc length: 1015 seconds
#
# Revision: 1
# Processed by: cddbd v1.5.1PL2 Copyright (c) Steve Scherf et al.
# Submitted via: ExactAudioCopy v0.95a5
#
DISCID=3203f504
DTITLE=陳百強 - 留住夕陽EP
DYEAR=1989
DGENRE=Pop
TTITLE0=留住夕陽
TTITLE1=眼淚\為你流
TTITLE2=GREATEST LOVE OF ALL
TTITLE3=偏偏喜歡你(Instrumental version)
EXTD=
EXTT0=
EXTT1=
EXTT2=
EXTT3=
PLAYORDER=
